<mxfile host="app.diagrams.net" agent="Mozilla/5.0 (Windows NT 10.0; Win64; x64) AppleWebKit/537.36 (KHTML, like Gecko) Chrome/128.0.0.0 Safari/537.36" version="24.7.12">
  <diagram name="Page-1" id="5f0bae14-7c28-e335-631c-24af17079c00">
    <mxGraphModel dx="1674" dy="772" grid="1" gridSize="10" guides="1" tooltips="1" connect="1" arrows="1" fold="1" page="1" pageScale="1" pageWidth="1100" pageHeight="850" background="none" math="0" shadow="0">
      <root>
        <mxCell id="0" />
        <mxCell id="1" parent="0" />
        <mxCell id="39150e848f15840c-1" value="cliente : Browser" style="verticalAlign=top;align=left;spacingTop=8;spacingLeft=2;spacingRight=12;shape=cube;size=10;direction=south;fontStyle=4;html=1;rounded=0;shadow=0;comic=0;labelBackgroundColor=none;strokeWidth=1;fontFamily=Verdana;fontSize=12" parent="1" vertex="1">
          <mxGeometry x="60" y="97.5" width="310" height="242.5" as="geometry" />
        </mxCell>
        <mxCell id="CMhQ_JP-druBH5E0zMsn-10" value="" style="rounded=0;whiteSpace=wrap;html=1;" parent="1" vertex="1">
          <mxGeometry x="90" y="145" width="250" height="175" as="geometry" />
        </mxCell>
        <mxCell id="39150e848f15840c-2" value="Servidor de Aplicação" style="verticalAlign=top;align=left;spacingTop=8;spacingLeft=2;spacingRight=12;shape=cube;size=10;direction=south;fontStyle=4;html=1;rounded=0;shadow=0;comic=0;labelBackgroundColor=none;strokeWidth=1;fontFamily=Verdana;fontSize=12" parent="1" vertex="1">
          <mxGeometry x="510" y="97.5" width="310" height="242.5" as="geometry" />
        </mxCell>
        <mxCell id="39150e848f15840c-3" value="Banco de Dados" style="verticalAlign=top;align=left;spacingTop=8;spacingLeft=2;spacingRight=12;shape=cube;size=10;direction=south;fontStyle=4;html=1;rounded=0;shadow=0;comic=0;labelBackgroundColor=none;strokeWidth=1;fontFamily=Verdana;fontSize=12" parent="1" vertex="1">
          <mxGeometry x="950" y="100" width="300" height="240" as="geometry" />
        </mxCell>
        <mxCell id="CMhQ_JP-druBH5E0zMsn-8" value="" style="image;aspect=fixed;html=1;points=[];align=center;fontSize=12;image=img/lib/azure2/networking/Virtual_Networks_Classic.svg;" parent="1" vertex="1">
          <mxGeometry x="70" y="130" width="67" height="40" as="geometry" />
        </mxCell>
        <mxCell id="CMhQ_JP-druBH5E0zMsn-11" value="" style="rounded=0;whiteSpace=wrap;html=1;" parent="1" vertex="1">
          <mxGeometry x="137" y="190" width="173" height="110" as="geometry" />
        </mxCell>
        <mxCell id="CMhQ_JP-druBH5E0zMsn-3" value="" style="image;aspect=fixed;html=1;points=[];align=center;fontSize=12;image=img/lib/azure2/app_services/App_Service_Plans.svg;" parent="1" vertex="1">
          <mxGeometry x="120" y="170" width="57" height="57" as="geometry" />
        </mxCell>
        <mxCell id="CMhQ_JP-druBH5E0zMsn-1" value="" style="image;aspect=fixed;html=1;points=[];align=center;fontSize=12;image=img/lib/azure2/app_services/App_Services.svg;" parent="1" vertex="1">
          <mxGeometry x="210" y="221" width="50" height="50" as="geometry" />
        </mxCell>
        <mxCell id="CMhQ_JP-druBH5E0zMsn-12" value="" style="rounded=0;whiteSpace=wrap;html=1;" parent="1" vertex="1">
          <mxGeometry x="546.5" y="140" width="250" height="175" as="geometry" />
        </mxCell>
        <mxCell id="CMhQ_JP-druBH5E0zMsn-13" value="" style="image;aspect=fixed;html=1;points=[];align=center;fontSize=12;image=img/lib/azure2/networking/Virtual_Networks_Classic.svg;" parent="1" vertex="1">
          <mxGeometry x="520" y="125" width="67" height="40" as="geometry" />
        </mxCell>
        <mxCell id="CMhQ_JP-druBH5E0zMsn-14" value="" style="rounded=0;whiteSpace=wrap;html=1;" parent="1" vertex="1">
          <mxGeometry x="600" y="185" width="173" height="110" as="geometry" />
        </mxCell>
        <mxCell id="CMhQ_JP-druBH5E0zMsn-5" value="" style="image;aspect=fixed;html=1;points=[];align=center;fontSize=12;image=img/lib/azure2/compute/Virtual_Machine.svg;" parent="1" vertex="1">
          <mxGeometry x="571" y="165" width="69" height="64" as="geometry" />
        </mxCell>
        <mxCell id="CMhQ_JP-druBH5E0zMsn-2" value="" style="image;aspect=fixed;html=1;points=[];align=center;fontSize=12;image=img/lib/azure2/app_services/API_Management_Services.svg;" parent="1" vertex="1">
          <mxGeometry x="670" y="208.5" width="70.43" height="65" as="geometry" />
        </mxCell>
        <mxCell id="CMhQ_JP-druBH5E0zMsn-15" value="" style="rounded=0;whiteSpace=wrap;html=1;" parent="1" vertex="1">
          <mxGeometry x="975" y="145" width="250" height="175" as="geometry" />
        </mxCell>
        <mxCell id="CMhQ_JP-druBH5E0zMsn-16" value="" style="image;aspect=fixed;html=1;points=[];align=center;fontSize=12;image=img/lib/azure2/networking/Virtual_Networks_Classic.svg;" parent="1" vertex="1">
          <mxGeometry x="950" y="130" width="67" height="40" as="geometry" />
        </mxCell>
        <mxCell id="CMhQ_JP-druBH5E0zMsn-17" value="" style="rounded=0;whiteSpace=wrap;html=1;" parent="1" vertex="1">
          <mxGeometry x="1017" y="190" width="173" height="110" as="geometry" />
        </mxCell>
        <mxCell id="CMhQ_JP-druBH5E0zMsn-4" value="" style="image;aspect=fixed;html=1;points=[];align=center;fontSize=12;image=img/lib/azure2/azure_stack/Capacity.svg;" parent="1" vertex="1">
          <mxGeometry x="1005.25" y="170" width="55.59" height="60" as="geometry" />
        </mxCell>
        <mxCell id="CMhQ_JP-druBH5E0zMsn-6" value="" style="image;aspect=fixed;html=1;points=[];align=center;fontSize=12;image=img/lib/azure2/databases/Azure_Database_PostgreSQL_Server.svg;" parent="1" vertex="1">
          <mxGeometry x="1100" y="212.5" width="48.75" height="65" as="geometry" />
        </mxCell>
        <mxCell id="CMhQ_JP-druBH5E0zMsn-19" value="" style="endArrow=none;html=1;rounded=0;" parent="1" edge="1">
          <mxGeometry width="50" height="50" relative="1" as="geometry">
            <mxPoint x="360" y="171.5" as="sourcePoint" />
            <mxPoint x="510" y="172" as="targetPoint" />
          </mxGeometry>
        </mxCell>
        <mxCell id="CMhQ_JP-druBH5E0zMsn-20" value="&amp;lt;&amp;lt; HTTPS &amp;gt;&amp;gt;" style="edgeLabel;html=1;align=center;verticalAlign=middle;resizable=0;points=[];" parent="CMhQ_JP-druBH5E0zMsn-19" vertex="1" connectable="0">
          <mxGeometry x="-0.1383" y="-2" relative="1" as="geometry">
            <mxPoint x="8" y="-13" as="offset" />
          </mxGeometry>
        </mxCell>
        <mxCell id="CMhQ_JP-druBH5E0zMsn-21" value="" style="endArrow=none;html=1;rounded=0;" parent="1" edge="1">
          <mxGeometry width="50" height="50" relative="1" as="geometry">
            <mxPoint x="820" y="175" as="sourcePoint" />
            <mxPoint x="950" y="175" as="targetPoint" />
          </mxGeometry>
        </mxCell>
        <mxCell id="CMhQ_JP-druBH5E0zMsn-22" value="&amp;lt;&amp;lt; HTTPS &amp;gt;&amp;gt;" style="edgeLabel;html=1;align=center;verticalAlign=middle;resizable=0;points=[];" parent="CMhQ_JP-druBH5E0zMsn-21" vertex="1" connectable="0">
          <mxGeometry x="-0.1383" y="-2" relative="1" as="geometry">
            <mxPoint x="8" y="-13" as="offset" />
          </mxGeometry>
        </mxCell>
      </root>
    </mxGraphModel>
  </diagram>
</mxfile>
